<?xml version="1.0" encoding="UTF-8"?>
<svg version="1.1" xmlns="http://www.w3.org/2000/svg" width="32" height="32">
<path d="M0 0 C10.56 0 21.12 0 32 0 C32 10.56 32 21.12 32 32 C21.44 32 10.88 32 0 32 C0 21.44 0 10.88 0 0 Z " fill="#273CBC" transform="translate(0,0)"/>
<path d="M0 0 C10.56 0 21.12 0 32 0 C32 10.56 32 21.12 32 32 C21.44 32 10.88 32 0 32 C0 21.44 0 10.88 0 0 Z M4 4 C3.90067847 5.69558726 3.86919993 7.39525747 3.8671875 9.09375 C3.86589844 10.12371094 3.86460938 11.15367188 3.86328125 12.21484375 C3.86714844 13.29894531 3.87101563 14.38304687 3.875 15.5 C3.87113281 16.58410156 3.86726562 17.66820312 3.86328125 18.78515625 C3.86457031 19.81511719 3.86585937 20.84507813 3.8671875 21.90625 C3.86831543 22.85822266 3.86944336 23.81019531 3.87060547 24.79101562 C3.75300544 26.97452138 3.75300544 26.97452138 5 28 C6.62257544 28.0991657 8.24939831 28.13079777 9.875 28.1328125 C10.85984375 28.13410156 11.8446875 28.13539062 12.859375 28.13671875 C14.41398438 28.13091797 14.41398438 28.13091797 16 28.125 C17.03640625 28.12886719 18.0728125 28.13273437 19.140625 28.13671875 C20.12546875 28.13542969 21.1103125 28.13414063 22.125 28.1328125 C23.03507812 28.13168457 23.94515625 28.13055664 24.8828125 28.12939453 C26.9852848 28.23560009 26.9852848 28.23560009 28 27 C28.40967226 23.36864143 28.51653905 19.71194641 28.6875 16.0625 C28.74744141 15.03447266 28.80738281 14.00644531 28.86914062 12.94726562 C28.91619141 11.96564453 28.96324219 10.98402344 29.01171875 9.97265625 C29.05772217 9.06781494 29.10372559 8.16297363 29.15112305 7.23071289 C29.23163165 4.79316818 29.23163165 4.79316818 27 3 C24.68895725 2.7059085 24.68895725 2.7059085 22.02734375 2.76953125 C20.55491211 2.77243164 20.55491211 2.77243164 19.05273438 2.77539062 C18.02470703 2.78763672 16.99667969 2.79988281 15.9375 2.8125 C14.90560547 2.81314453 13.87371094 2.81378906 12.81054688 2.81445312 C8.05959754 2.39591689 8.05959754 2.39591689 4 4 Z " fill="#A0ADF7" transform="translate(0,0)"/>
<path d="M0 0 C0.90492187 0.02320313 1.80984375 0.04640625 2.7421875 0.0703125 C4.10730469 0.09738281 4.10730469 0.09738281 5.5 0.125 C6.19867188 0.14820313 6.89734375 0.17140625 7.6171875 0.1953125 C7.9471875 1.1853125 8.2771875 2.1753125 8.6171875 3.1953125 C9.2771875 3.1953125 9.9371875 3.1953125 10.6171875 3.1953125 C9.9571875 5.1753125 9.2971875 7.1553125 8.6171875 9.1953125 C4.6571875 9.1953125 0.6971875 9.1953125 -3.3828125 9.1953125 C-3.3828125 8.2053125 -3.3828125 7.2153125 -3.3828125 6.1953125 C-4.0428125 6.1953125 -4.7028125 6.1953125 -5.3828125 6.1953125 C-4.65745348 2.56851739 -4.09107647 0.33533414 0 0 Z " fill="#F19C89" transform="translate(13.3828125,11.8046875)"/>
<path d="M0 0 C7.59 0 15.18 0 23 0 C23.33 1.98 23.66 3.96 24 6 C23.01 5.34 22.02 4.68 21 4 C18.58286521 3.6336141 18.58286521 3.6336141 15.89453125 3.5859375 C14.91162109 3.54726563 13.92871094 3.50859375 12.91601562 3.46875 C11.37977539 3.42234375 11.37977539 3.42234375 9.8125 3.375 C8.77673828 3.33632813 7.74097656 3.29765625 6.67382812 3.2578125 C4.11606378 3.16351704 1.55830713 3.07791798 -1 3 C-0.67 2.01 -0.34 1.02 0 0 Z " fill="#ADBAFF" transform="translate(6,0)"/>
<path d="M0 0 C0.33 1.65 0.66 3.3 1 5 C-2.96 5 -6.92 5 -11 5 C-11 3.68 -11 2.36 -11 1 C-7.32589215 -0.17571451 -3.83070817 -0.07366746 0 0 Z " fill="#EEE9E3" transform="translate(21,16)"/>
<path d="M0 0 C1.98 0 3.96 0 6 0 C5.76228882 0.82226074 5.76228882 0.82226074 5.51977539 1.66113281 C4.9372438 4.28238816 4.78793845 6.73872553 4.68359375 9.421875 C4.64169922 10.44667969 4.59980469 11.47148437 4.55664062 12.52734375 C4.51732422 13.59082031 4.47800781 14.65429688 4.4375 15.75 C4.37272461 17.36841797 4.37272461 17.36841797 4.30664062 19.01953125 C4.20071011 21.67956428 4.09863579 24.33968812 4 27 C3.67 27 3.34 27 3 27 C2.98018066 26.37955811 2.96036133 25.75911621 2.93994141 25.11987305 C2.84468155 22.30865463 2.73500698 19.49817834 2.625 16.6875 C2.57859375 15.22280273 2.57859375 15.22280273 2.53125 13.72851562 C2.49257813 12.79072266 2.45390625 11.85292969 2.4140625 10.88671875 C2.3826416 10.02264404 2.3512207 9.15856934 2.31884766 8.26831055 C2.12811963 5.72257555 2.12811963 5.72257555 0 3 C0 2.01 0 1.02 0 0 Z " fill="#8A95EC" transform="translate(0,0)"/>
<path d="M0 0 C5.28 0 10.56 0 16 0 C15.67 0.99 15.34 1.98 15 3 C14.01 2.67 13.02 2.34 12 2 C9.93412885 2.08573227 7.87053475 2.23833535 5.8125 2.4375 C4.72582031 2.53933594 3.63914062 2.64117188 2.51953125 2.74609375 C1.68808594 2.82988281 0.85664063 2.91367187 0 3 C0 2.01 0 1.02 0 0 Z " fill="#F7C08A" transform="translate(8,15)"/>
</svg>
